<?xml version="1.0" encoding="UTF-8" standalone="no"?>
<svg xmlns:inkscape="http://www.inkscape.org/namespaces/inkscape" xmlns:sodipodi="http://sodipodi.sourceforge.net/DTD/sodipodi-0.dtd" xmlns="http://www.w3.org/2000/svg" xmlns:svg="http://www.w3.org/2000/svg" width="3149.623" height="500" viewBox="0 0 3149.623 500" fill="none" version="1.1" id="svg71" sodipodi:docname="FacetsCloud_logo.svg" inkscape:version="1.2.2 (b0a84865, 2022-12-01)">
  <defs id="defs75"></defs>
  <g id="g245" transform="matrix(2.2220062,0,0,2.2220062,-18.935695,-33.281497)">
    <path d="m 454.32,211 h 18.88 v -49.76 h 52.32 v -16.8 H 473.2 V 108.6 h 58.72 V 91.8 h -77.6 z m 111.135,1.92 c 5.973,0 11.36,-1.013 16.16,-3.04 4.8,-2.133 8.8,-5.12 12,-8.96 V 211 h 17.28 v -58.24 c 0,-5.973 -1.493,-11.2 -4.48,-15.68 -2.987,-4.587 -7.093,-8.16 -12.32,-10.72 -5.227,-2.56 -11.253,-3.84 -18.08,-3.84 -5.44,0 -10.613,0.96 -15.52,2.88 -4.8,1.813 -9.013,4.32 -12.64,7.52 -3.52,3.2 -6.133,6.933 -7.84,11.2 l 15.04,7.52 c 1.707,-4.053 4.32,-7.307 7.84,-9.76 3.627,-2.453 7.84,-3.68 12.64,-3.68 5.227,0 9.387,1.387 12.48,4.16 3.2,2.667 4.8,6.133 4.8,10.4 v 3.36 l -27.52,4.48 c -10.027,1.707 -17.44,5.013 -22.24,9.92 -4.693,4.8 -7.04,10.667 -7.04,17.6 0,7.467 2.72,13.493 8.16,18.08 5.44,4.48 12.533,6.72 21.28,6.72 z m -10.56,-25.44 c 0,-3.413 1.12,-6.24 3.36,-8.48 2.24,-2.24 5.76,-3.733 10.56,-4.48 l 24,-4.16 V 175 c 0,4.373 -1.067,8.373 -3.2,12 -2.027,3.627 -4.853,6.507 -8.48,8.64 -3.627,2.027 -7.893,3.04 -12.8,3.04 -3.947,0 -7.2,-1.013 -9.76,-3.04 -2.453,-2.133 -3.68,-4.853 -3.68,-8.16 z m 115.86,25.44 c 5.973,0 11.52,-1.067 16.64,-3.2 5.12,-2.133 9.547,-5.013 13.28,-8.64 3.84,-3.733 6.613,-7.893 8.32,-12.48 l -15.84,-7.52 c -1.92,4.587 -4.853,8.267 -8.8,11.04 -3.84,2.667 -8.373,4 -13.6,4 -4.907,0 -9.333,-1.227 -13.28,-3.68 -3.84,-2.453 -6.88,-5.813 -9.12,-10.08 -2.24,-4.373 -3.36,-9.28 -3.36,-14.72 0,-5.547 1.12,-10.4 3.36,-14.56 2.24,-4.267 5.28,-7.627 9.12,-10.08 3.947,-2.453 8.373,-3.68 13.28,-3.68 5.227,0 9.813,1.387 13.76,4.16 3.947,2.667 6.827,6.24 8.64,10.72 l 15.84,-7.36 c -1.813,-4.8 -4.64,-9.013 -8.48,-12.64 -3.733,-3.733 -8.16,-6.613 -13.28,-8.64 -5.12,-2.027 -10.613,-3.04 -16.48,-3.04 -8.64,0 -16.32,1.973 -23.04,5.92 -6.72,3.84 -12,9.173 -15.84,16 -3.84,6.72 -5.76,14.4 -5.76,23.04 0,8.64 1.92,16.373 5.76,23.2 3.84,6.827 9.12,12.267 15.84,16.32 6.72,3.947 14.4,5.92 23.04,5.92 z m 94.151,0 c 8.854,0 16.534,-2.027 23.04,-6.08 6.614,-4.053 11.254,-9.173 13.92,-15.36 l -14.72,-7.2 c -2.133,3.627 -5.066,6.667 -8.8,9.12 -3.626,2.347 -8.053,3.52 -13.28,3.52 -6.826,0 -12.64,-2.133 -17.44,-6.4 -4.8,-4.373 -7.466,-10.24 -8,-17.6 h 64.32 c 0.32,-1.28 0.534,-2.667 0.64,-4.16 0.107,-1.493 0.16,-2.933 0.16,-4.32 0,-7.467 -1.653,-14.347 -4.96,-20.64 -3.2,-6.4 -7.893,-11.52 -14.08,-15.36 -6.08,-3.947 -13.493,-5.92 -22.24,-5.92 -8.106,0 -15.413,1.973 -21.92,5.92 -6.4,3.84 -11.466,9.173 -15.2,16 -3.733,6.72 -5.6,14.4 -5.6,23.04 0,8.533 1.867,16.267 5.6,23.2 3.84,6.827 9.067,12.267 15.68,16.32 6.614,3.947 14.24,5.92 22.88,5.92 z m -1.44,-75.2 c 6.08,0 11.2,1.92 15.36,5.76 4.16,3.84 6.4,8.853 6.72,15.04 h -45.6 c 1.067,-6.613 3.787,-11.733 8.16,-15.36 4.374,-3.627 9.494,-5.44 15.36,-5.44 z m 93.965,74.24 c 1.494,0 3.147,-0.107 4.96,-0.32 1.814,-0.213 3.414,-0.427 4.8,-0.64 v -15.52 c -2.026,0.32 -4,0.48 -5.92,0.48 -5.226,0 -8.96,-1.227 -11.2,-3.68 -2.133,-2.56 -3.2,-6.027 -3.2,-10.4 v -41.12 h 19.68 v -16.32 h -19.68 V 104.6 h -18.08 v 6.72 c 0,4.053 -1.12,7.253 -3.36,9.6 -2.24,2.347 -5.386,3.52 -9.44,3.52 h -2.4 v 16.32 h 15.2 v 41.92 c 0,9.28 2.507,16.48 7.52,21.6 5.014,5.12 12.054,7.68 21.12,7.68 z m 57.004,0.96 c 6.4,0 12,-1.067 16.8,-3.2 4.907,-2.24 8.693,-5.28 11.36,-9.12 2.667,-3.947 4,-8.48 4,-13.6 0,-5.973 -1.92,-11.093 -5.76,-15.36 -3.84,-4.373 -9.333,-7.573 -16.48,-9.6 l -14.08,-4.16 c -2.667,-0.853 -5.173,-2.027 -7.52,-3.52 -2.347,-1.493 -3.52,-3.733 -3.52,-6.72 0,-3.093 1.173,-5.547 3.52,-7.36 2.347,-1.813 5.493,-2.72 9.44,-2.72 4.587,0 8.693,1.227 12.32,3.68 3.733,2.453 6.453,5.76 8.16,9.92 l 13.92,-6.56 c -2.56,-6.933 -6.933,-12.32 -13.12,-16.16 -6.187,-3.947 -13.227,-5.92 -21.12,-5.92 -5.867,0 -11.147,1.12 -15.84,3.36 -4.693,2.133 -8.373,5.12 -11.04,8.96 -2.667,3.84 -4,8.373 -4,13.6 0,5.867 1.813,10.933 5.44,15.2 3.733,4.267 9.333,7.467 16.8,9.6 l 13.6,3.84 c 2.773,0.747 5.387,1.92 7.84,3.52 2.453,1.493 3.68,3.787 3.68,6.88 0,3.307 -1.333,5.92 -4,7.84 -2.667,1.92 -6.133,2.88 -10.4,2.88 -5.013,0 -9.6,-1.44 -13.76,-4.32 -4.053,-2.88 -7.253,-6.773 -9.6,-11.68 l -13.92,6.56 c 2.667,7.36 7.307,13.227 13.92,17.6 6.72,4.373 14.507,6.56 23.36,6.56 z M 969.91,211 h 18.4 v -20.8 h -18.4 z" fill="#645df6" id="path59"></path>
    <path d="m 1056.1,212.92 c 5.97,0 11.52,-1.067 16.64,-3.2 5.12,-2.133 9.55,-5.013 13.28,-8.64 3.84,-3.733 6.61,-7.893 8.32,-12.48 l -15.84,-7.52 c -1.92,4.587 -4.85,8.267 -8.8,11.04 -3.84,2.667 -8.37,4 -13.6,4 -4.91,0 -9.33,-1.227 -13.28,-3.68 -3.84,-2.453 -6.88,-5.813 -9.12,-10.08 -2.24,-4.373 -3.36,-9.28 -3.36,-14.72 0,-5.547 1.12,-10.4 3.36,-14.56 2.24,-4.267 5.28,-7.627 9.12,-10.08 3.95,-2.453 8.37,-3.68 13.28,-3.68 5.23,0 9.81,1.387 13.76,4.16 3.95,2.667 6.83,6.24 8.64,10.72 l 15.84,-7.36 c -1.81,-4.8 -4.64,-9.013 -8.48,-12.64 -3.73,-3.733 -8.16,-6.613 -13.28,-8.64 -5.12,-2.027 -10.61,-3.04 -16.48,-3.04 -8.64,0 -16.32,1.973 -23.04,5.92 -6.72,3.84 -12,9.173 -15.84,16 -3.84,6.72 -5.76,14.4 -5.76,23.04 0,8.64 1.92,16.373 5.76,23.2 3.84,6.827 9.12,12.267 15.84,16.32 6.72,3.947 14.4,5.92 23.04,5.92 z m 53.51,-1.92 h 18.08 V 89.88 h -18.08 z m 78.58,1.92 c 8.32,0 15.89,-1.92 22.72,-5.76 6.83,-3.947 12.27,-9.333 16.32,-16.16 4.05,-6.827 6.08,-14.613 6.08,-23.36 0,-8.747 -2.03,-16.48 -6.08,-23.2 -3.95,-6.827 -9.33,-12.16 -16.16,-16 -6.83,-3.947 -14.45,-5.92 -22.88,-5.92 -8.43,0 -16.11,1.973 -23.04,5.92 -6.83,3.84 -12.27,9.173 -16.32,16 -3.95,6.72 -5.92,14.453 -5.92,23.2 0,8.64 2.03,16.373 6.08,23.2 4.05,6.827 9.49,12.213 16.32,16.16 6.93,3.947 14.56,5.92 22.88,5.92 z m 0,-16.8 c -5.01,0 -9.55,-1.227 -13.6,-3.68 -3.95,-2.453 -7.09,-5.813 -9.44,-10.08 -2.24,-4.373 -3.36,-9.28 -3.36,-14.72 0,-5.44 1.12,-10.293 3.36,-14.56 2.35,-4.267 5.49,-7.627 9.44,-10.08 4.05,-2.453 8.59,-3.68 13.6,-3.68 5.01,0 9.49,1.227 13.44,3.68 4.05,2.453 7.2,5.813 9.44,10.08 2.35,4.267 3.52,9.12 3.52,14.56 0,5.44 -1.17,10.347 -3.52,14.72 -2.24,4.267 -5.39,7.627 -9.44,10.08 -3.95,2.453 -8.43,3.68 -13.44,3.68 z m 91.25,16.8 c 5.44,0 10.29,-1.067 14.56,-3.2 4.27,-2.24 7.63,-5.387 10.08,-9.44 V 211 h 17.12 v -86.56 h -17.92 v 51.04 c 0,6.293 -1.81,11.307 -5.44,15.04 -3.63,3.733 -8.27,5.6 -13.92,5.6 -5.55,0 -10.13,-1.813 -13.76,-5.44 -3.52,-3.627 -5.28,-8.427 -5.28,-14.4 v -51.84 h -18.08 v 53.44 c 0,6.933 1.33,13.067 4,18.4 2.77,5.227 6.61,9.333 11.52,12.32 4.91,2.88 10.61,4.32 17.12,4.32 z m 100.47,0 c 5.97,0 11.47,-1.12 16.48,-3.36 5.12,-2.24 9.28,-5.493 12.48,-9.76 V 211 h 17.12 V 89.88 h -17.92 v 44.64 c -3.2,-3.733 -7.25,-6.667 -12.16,-8.8 -4.8,-2.133 -10.19,-3.2 -16.16,-3.2 -8.21,0 -15.63,1.973 -22.24,5.92 -6.51,3.947 -11.68,9.333 -15.52,16.16 -3.73,6.827 -5.6,14.507 -5.6,23.04 0,8.533 1.87,16.213 5.6,23.04 3.84,6.827 9.01,12.267 15.52,16.32 6.61,3.947 14.08,5.92 22.4,5.92 z m 1.76,-16.8 c -5.12,0 -9.71,-1.227 -13.76,-3.68 -3.95,-2.453 -7.04,-5.813 -9.28,-10.08 -2.24,-4.373 -3.36,-9.28 -3.36,-14.72 0,-5.44 1.12,-10.293 3.36,-14.56 2.35,-4.267 5.49,-7.627 9.44,-10.08 4.05,-2.453 8.59,-3.68 13.6,-3.68 5.01,0 9.49,1.227 13.44,3.68 4.05,2.453 7.2,5.813 9.44,10.08 2.35,4.267 3.52,9.12 3.52,14.56 0,5.44 -1.17,10.347 -3.52,14.72 -2.24,4.267 -5.39,7.627 -9.44,10.08 -3.95,2.453 -8.43,3.68 -13.44,3.68 z" fill="#00c2bb" id="path61"></path>
    <path d="M 190,231 V 22.9939 c 0,-7.5827 -9.566,-10.9108 -14.272,-4.9656 L 10.2645,227.034 C 6.11252,232.279 9.84774,240 16.5368,240 H 181 c 4.971,0 9,-4.029 9,-9 z" fill="#00c2bb" id="path63"></path>
    <path d="M 394.732,15 H 221 c -4.418,0 -8,3.5817 -8,8 v 44 c 0,4.4183 3.582,8 8,8 h 126.76 c 4.889,0 9.51,-2.2354 12.544,-6.0688 L 397.868,21.4828 C 399.944,18.8605 398.076,15 394.732,15 Z" fill="#645df6" id="path65"></path>
    <path d="m 213,183 v 52.503 c 0,3.791 4.783,5.455 7.136,2.483 l 44.732,-56.503 C 266.944,178.861 265.076,175 261.732,175 H 221 c -4.418,0 -8,3.582 -8,8 z" fill="#645df6" id="path67"></path>
    <path d="M 328.232,95 H 221 c -4.418,0 -8,3.5817 -8,8 v 44 c 0,4.418 3.582,8 8,8 h 60.26 c 4.889,0 9.51,-2.235 12.544,-6.069 l 37.564,-47.448 C 333.444,98.8605 331.576,95 328.232,95 Z" fill="#00c2bb" id="path69"></path>
  </g>
</svg>
