<?xml version="1.0" encoding="UTF-8" standalone="no"?>
<svg xmlns:inkscape="http://www.inkscape.org/namespaces/inkscape" xmlns:sodipodi="http://sodipodi.sourceforge.net/DTD/sodipodi-0.dtd" xmlns="http://www.w3.org/2000/svg" xmlns:svg="http://www.w3.org/2000/svg" width="775" height="245" viewBox="0 0 775 245" fill="none" version="1.1" id="svg28" sodipodi:docname="Shoreline_logo.svg" inkscape:version="1.1.1 (3bf5ae0d25, 2021-09-20)">
  <defs id="defs32"></defs>
  <g id="g862">
    <path d="m 14.9323,205.161 c 0.2088,0 0.4155,0.041 0.6084,0.121 0.1929,0.079 0.3682,0.196 0.5158,0.343 0.1476,0.147 0.2648,0.321 0.3447,0.513 0.0799,0.192 0.1211,0.398 0.1211,0.605 1.2442,18.85 19.7005,23.734 36.2903,23.734 17.8341,0 30.4837,-6.879 30.4837,-18.987 0,-10.25 -8.0184,-14.446 -20.7373,-16.648 L 36.9831,190.577 C 23.5729,188.376 3.45766,183.009 3.45766,161.202 c 0,-20.638 16.31344,-34.397 45.20744,-34.397 22.1198,0 45.4147,7.774 47.9032,33.365 0.0188,0.232 -0.0097,0.464 -0.0837,0.684 -0.0741,0.221 -0.192,0.424 -0.3471,0.597 -0.155,0.174 -0.3439,0.314 -0.555,0.413 -0.211,0.099 -0.4399,0.155 -0.6731,0.163 H 81.0845 c -0.3841,-0.01 -0.7526,-0.153 -1.0425,-0.404 -0.29,-0.251 -0.4836,-0.595 -0.5474,-0.972 -1.7282,-8.599 -7.5346,-19.399 -33.2489,-19.399 -12.3041,0 -26.1982,5.159 -26.1982,18.368 0,6.879 4.5623,12.451 18.4563,14.79 l 27.6498,4.747 c 8.8479,1.582 34.0094,5.779 34.0094,28.756 0,28.618 -25.7837,36.805 -48.3874,36.805 -24.9539,0 -50.806418,-8.53 -51.77415982,-38.112 -0.00932517,-0.222 0.02671082,-0.445 0.10589782,-0.653 0.079186,-0.209 0.199829,-0.398 0.354819,-0.559 0.15499,-0.161 0.341077,-0.289 0.546993,-0.376 0.20592,-0.087 0.42741,-0.132 0.65121,-0.132 z" fill="#2a5fc7" id="path2"></path>
    <path d="m 113.638,129.005 h 12.581 c 0.215,0 0.427,0.043 0.625,0.127 0.197,0.083 0.376,0.206 0.524,0.36 0.149,0.155 0.265,0.337 0.34,0.537 0.076,0.2 0.11,0.413 0.101,0.627 v 41.276 h 0.345 c 3.652,-5.063 8.536,-9.121 14.195,-11.792 5.658,-2.671 11.905,-3.868 18.156,-3.48 19.908,0 34.562,8.462 34.562,29.1 v 54.485 c 0.009,0.213 -0.025,0.427 -0.101,0.627 -0.075,0.2 -0.191,0.382 -0.34,0.536 -0.148,0.155 -0.327,0.278 -0.524,0.361 -0.198,0.084 -0.41,0.127 -0.625,0.127 h -12.581 c -0.214,0 -0.427,-0.043 -0.624,-0.127 -0.198,-0.083 -0.376,-0.206 -0.525,-0.361 -0.149,-0.154 -0.264,-0.336 -0.34,-0.536 -0.076,-0.2 -0.11,-0.414 -0.1,-0.627 v -51.389 c 0,-12.108 -7.604,-18.987 -24.54,-18.987 -14.308,0 -27.166,8.324 -27.166,24.49 v 45.886 c 0.01,0.213 -0.024,0.427 -0.1,0.627 -0.076,0.2 -0.192,0.382 -0.34,0.536 -0.149,0.155 -0.327,0.278 -0.525,0.361 -0.197,0.084 -0.41,0.127 -0.624,0.127 h -12.374 c -0.214,0 -0.427,-0.043 -0.625,-0.127 -0.197,-0.083 -0.375,-0.206 -0.524,-0.361 -0.149,-0.154 -0.264,-0.336 -0.34,-0.536 -0.076,-0.2 -0.11,-0.414 -0.101,-0.627 V 130.174 c 0.094,-0.345 0.302,-0.648 0.591,-0.86 0.288,-0.212 0.641,-0.321 0.999,-0.309 z" fill="#2a5fc7" id="path4"></path>
    <path d="m 259.213,156.934 c 32.212,0 47.973,20.638 47.973,44.028 0,23.39 -15.761,44.028 -47.973,44.028 -32.212,0 -48.041,-20.638 -48.041,-44.028 0,-23.39 15.76,-44.028 48.041,-44.028 z m 0,13.208 c -6.112,0.054 -12.072,1.908 -17.128,5.327 -5.056,3.42 -8.983,8.252 -11.284,13.888 -2.302,5.636 -2.875,11.824 -1.65,17.784 1.226,5.961 4.197,11.427 8.539,15.709 4.342,4.283 9.86,7.191 15.859,8.358 6,1.167 12.212,0.541 17.855,-1.8 5.642,-2.34 10.463,-6.29 13.853,-11.352 3.391,-5.063 5.2,-11.01 5.201,-17.094 0.303,-4.148 -0.3,-8.313 -1.767,-12.208 -1.467,-3.895 -3.763,-7.427 -6.731,-10.355 -2.969,-2.928 -6.539,-5.183 -10.465,-6.608 -3.926,-1.425 -8.116,-1.988 -12.282,-1.649 z" fill="#2a5fc7" id="path6"></path>
    <path d="m 653.569,200.962 c -0.379,-8.003 -3.839,-15.554 -9.664,-21.084 -5.824,-5.531 -13.565,-8.616 -21.615,-8.616 -8.051,0 -15.791,3.085 -21.616,8.616 -5.824,5.53 -9.285,13.081 -9.663,21.084 v 39.557 c 0,0.438 -0.175,0.857 -0.486,1.167 -0.311,0.31 -0.733,0.484 -1.173,0.484 h -13.48 c -0.214,0 -0.427,-0.043 -0.624,-0.127 -0.198,-0.084 -0.376,-0.207 -0.525,-0.361 -0.148,-0.154 -0.264,-0.337 -0.34,-0.537 -0.076,-0.2 -0.11,-0.413 -0.1,-0.626 v -39.557 c 0,-23.734 15.76,-44.028 47.972,-44.028 32.212,0 48.042,20.638 48.042,44.028 v 39.557 c 0.009,0.213 -0.025,0.426 -0.101,0.626 -0.076,0.2 -0.191,0.383 -0.34,0.537 -0.148,0.154 -0.327,0.277 -0.524,0.361 -0.198,0.084 -0.41,0.127 -0.625,0.127 h -13.479 c -0.44,0 -0.862,-0.174 -1.173,-0.484 -0.312,-0.31 -0.486,-0.729 -0.486,-1.167 z" fill="#2a5fc7" id="path8"></path>
    <path d="m 415.645,205.64 c -0.237,-0.002 -0.471,0.046 -0.687,0.142 -0.216,0.095 -0.409,0.236 -0.566,0.412 -0.157,0.176 -0.275,0.383 -0.345,0.608 -0.07,0.225 -0.091,0.462 -0.061,0.695 1.234,7.012 4.983,13.339 10.552,17.806 5.569,4.466 12.578,6.769 19.724,6.479 5.232,0.371 10.464,-0.72 15.106,-3.152 4.641,-2.431 8.507,-6.105 11.162,-10.607 0.131,-0.271 0.338,-0.499 0.595,-0.658 0.257,-0.158 0.554,-0.24 0.856,-0.237 h 13.272 c 0.279,-0.002 0.555,0.066 0.8,0.198 0.246,0.132 0.454,0.323 0.606,0.556 0.151,0.234 0.241,0.501 0.261,0.778 0.021,0.277 -0.03,0.555 -0.146,0.808 -3.718,7.77 -9.607,14.31 -16.963,18.836 -7.355,4.526 -15.865,6.848 -24.512,6.686 -32.281,0 -48.041,-20.638 -48.041,-44.028 0,-23.39 15.76,-44.028 48.041,-44.028 21.775,0 44.862,12.589 44.862,46.711 v 1.995 z m 55.3,-12.246 c 0.241,0.006 0.48,-0.043 0.7,-0.143 0.219,-0.1 0.413,-0.248 0.566,-0.434 0.153,-0.186 0.262,-0.404 0.318,-0.637 0.056,-0.234 0.058,-0.477 0.005,-0.712 -1.381,-6.379 -5.029,-12.049 -10.274,-15.966 -5.244,-3.918 -11.733,-5.821 -18.274,-5.36 -6.633,-0.371 -13.193,1.539 -18.579,5.409 -5.387,3.87 -9.273,9.466 -11.006,15.848 -0.065,0.24 -0.073,0.491 -0.023,0.733 0.05,0.243 0.157,0.47 0.312,0.664 0.154,0.195 0.353,0.35 0.579,0.453 0.226,0.104 0.473,0.154 0.721,0.145 z" fill="#2a5fc7" id="path10"></path>
    <path d="m 507.651,129.008 h 12.512 c 0.44,0 0.862,0.174 1.173,0.484 0.311,0.309 0.486,0.729 0.486,1.167 v 110.07 c 0,0.438 -0.175,0.858 -0.486,1.168 -0.311,0.31 -0.733,0.483 -1.173,0.483 h -12.512 c -0.44,0 -0.862,-0.173 -1.173,-0.483 -0.311,-0.31 -0.486,-0.73 -0.486,-1.168 v -110.07 c 0,-0.438 0.175,-0.858 0.486,-1.167 0.311,-0.31 0.733,-0.484 1.173,-0.484 z" fill="#2a5fc7" id="path12"></path>
    <path d="m 549.129,128.591 c 1.7,0.147 3.319,0.783 4.66,1.831 1.342,1.048 2.347,2.462 2.895,4.07 0.547,1.607 0.612,3.339 0.186,4.983 -0.425,1.643 -1.322,3.128 -2.582,4.272 -1.259,1.145 -2.826,1.899 -4.509,2.171 -1.684,0.273 -3.41,0.052 -4.969,-0.636 -1.559,-0.689 -2.883,-1.814 -3.81,-3.239 -0.927,-1.424 -1.417,-3.087 -1.41,-4.784 -0.039,-1.221 0.188,-2.436 0.665,-3.561 0.478,-1.125 1.194,-2.134 2.1,-2.958 0.907,-0.824 1.982,-1.442 3.151,-1.813 1.169,-0.371 2.405,-0.486 3.623,-0.336 z" fill="#2a5fc7" id="path14"></path>
    <path d="m 542.763,159.758 h 12.581 c 0.215,0 0.427,0.043 0.625,0.127 0.197,0.083 0.376,0.206 0.524,0.36 0.149,0.155 0.265,0.337 0.34,0.537 0.076,0.2 0.11,0.414 0.101,0.627 v 79.113 c 0.009,0.214 -0.025,0.427 -0.101,0.627 -0.075,0.2 -0.191,0.383 -0.34,0.537 -0.148,0.154 -0.327,0.277 -0.524,0.361 -0.198,0.083 -0.41,0.127 -0.625,0.126 h -12.581 c -0.215,0.001 -0.427,-0.043 -0.625,-0.126 -0.197,-0.084 -0.376,-0.207 -0.524,-0.361 -0.149,-0.154 -0.264,-0.337 -0.34,-0.537 -0.076,-0.2 -0.11,-0.413 -0.101,-0.627 v -79.113 c -0.009,-0.213 0.025,-0.427 0.101,-0.627 0.076,-0.2 0.191,-0.382 0.34,-0.537 0.148,-0.154 0.327,-0.277 0.524,-0.36 0.198,-0.084 0.41,-0.127 0.625,-0.127 z" fill="#2a5fc7" id="path16"></path>
    <path d="m 697.395,205.64 c -0.237,-0.002 -0.471,0.046 -0.687,0.142 -0.216,0.095 -0.409,0.236 -0.566,0.412 -0.157,0.176 -0.275,0.383 -0.345,0.608 -0.07,0.225 -0.091,0.462 -0.061,0.695 1.22,7.018 4.966,13.354 10.538,17.823 5.572,4.47 12.588,6.766 19.738,6.462 5.231,0.363 10.46,-0.732 15.1,-3.163 4.64,-2.43 8.507,-6.099 11.168,-10.596 0.131,-0.271 0.337,-0.499 0.594,-0.658 0.258,-0.158 0.555,-0.24 0.857,-0.237 h 13.203 c 0.279,-0.002 0.554,0.066 0.8,0.198 0.245,0.132 0.454,0.323 0.605,0.557 0.152,0.233 0.242,0.5 0.262,0.777 0.02,0.277 -0.03,0.555 -0.146,0.808 -3.711,7.776 -9.599,14.32 -16.956,18.847 -7.357,4.528 -15.871,6.845 -24.519,6.675 -32.212,0 -47.972,-20.638 -47.972,-44.028 0,-23.39 15.76,-44.028 47.972,-44.028 21.843,0 44.931,12.589 44.931,46.711 v 1.995 z m 55.299,-12.246 c 0.244,0.004 0.484,-0.046 0.706,-0.146 0.222,-0.099 0.419,-0.246 0.577,-0.43 0.158,-0.184 0.274,-0.4 0.339,-0.633 0.065,-0.234 0.078,-0.478 0.037,-0.717 -1.381,-6.379 -5.029,-12.049 -10.274,-15.966 -5.244,-3.918 -11.733,-5.821 -18.274,-5.36 -6.645,-0.387 -13.221,1.515 -18.621,5.386 -5.401,3.872 -9.298,9.477 -11.034,15.872 -0.039,0.242 -0.026,0.489 0.039,0.726 0.064,0.237 0.179,0.457 0.336,0.646 0.157,0.189 0.353,0.342 0.575,0.449 0.221,0.108 0.463,0.167 0.71,0.173 z" fill="#2a5fc7" id="path18"></path>
    <path d="m 389.379,161.272 c -0.004,-0.344 -0.112,-0.678 -0.309,-0.96 -0.197,-0.282 -0.475,-0.499 -0.797,-0.622 -6.082,-1.899 -12.428,-2.828 -18.802,-2.752 -32.212,0 -48.041,20.638 -48.041,44.028 v 39.557 c 0,0.438 0.174,0.857 0.486,1.167 0.311,0.31 0.733,0.484 1.173,0.484 h 13.479 c 0.215,0 0.427,-0.043 0.625,-0.127 0.197,-0.084 0.376,-0.206 0.524,-0.361 0.149,-0.154 0.265,-0.337 0.34,-0.537 0.076,-0.2 0.11,-0.413 0.101,-0.626 v -39.557 c -0.282,-4.137 0.336,-8.286 1.812,-12.164 1.476,-3.878 3.776,-7.393 6.742,-10.306 2.966,-2.913 6.528,-5.154 10.444,-6.571 3.916,-1.417 8.093,-1.977 12.246,-1.641 6.109,-0.168 12.15,1.305 17.489,4.265 0.242,0.148 0.521,0.229 0.806,0.233 0.284,0.004 0.565,-0.068 0.812,-0.209 0.247,-0.141 0.452,-0.344 0.593,-0.591 0.141,-0.246 0.213,-0.525 0.208,-0.809 z" fill="#2a5fc7" id="path20"></path>
    <path d="m 617.491,19.6231 h -272.35 l 7.811,16.9235 h 264.539 c 1.244,0 2.281,-0.6878 2.281,-1.5821 V 21.2057 c 0,-0.8943 -1.037,-1.651 -2.281,-1.651" fill="#2a5fc7" id="path22"></path>
    <path d="m 254.373,36.5446 7.949,-16.9235 H 149.649 c -1.244,0 -2.211,0.7571 -2.211,1.6514 v 13.7588 c 0,0.8943 0.967,1.5822 2.211,1.5822 z" fill="#2a5fc7" id="path24"></path>
    <path d="m 541.041,105.684 c -18.541,0.327 -36.719,-5.134 -51.981,-15.616 -7.753,-5.6771 -17.126,-8.7395 -26.752,-8.7395 -9.625,0 -18.998,3.0624 -26.751,8.7395 l -1.037,0.6189 c -11.78,7.2846 -25.401,11.0821 -39.269,10.9481 -13.869,-0.134 -27.412,-4.1939 -39.049,-11.7047 L 352.746,87.66 C 340.698,79.8774 331.112,68.8578 325.096,55.8771 L 309.751,22.581 c -0.635,-1.0114 -1.523,-1.8416 -2.577,-2.4084 -1.055,-0.5669 -2.239,-0.8512 -3.437,-0.8251 -1.186,-0.0141 -2.356,0.276 -3.398,0.8423 -1.041,0.5663 -1.918,1.3899 -2.547,2.3912 l -15.829,34.3971 c -5.742,12.3437 -14.72,22.9188 -25.991,30.613 l -1.313,0.9632 c -11.71,8.0318 -25.518,12.4917 -39.735,12.8337 -14.217,0.342 -28.226,-3.4481 -40.311,-10.9072 h -0.346 c -7.425,-5.1417 -16.132,-8.1415 -25.161,-8.6681 -0.209,0 -0.416,-0.041 -0.609,-0.1206 -0.193,-0.0795 -0.368,-0.1961 -0.516,-0.343 -0.147,-0.1469 -0.264,-0.3211 -0.344,-0.5131 -0.08,-0.192 -0.121,-0.3981 -0.121,-0.6059 V 63.9948 c -0.001,-0.2289 0.046,-0.4553 0.138,-0.6651 0.092,-0.2098 0.226,-0.3986 0.395,-0.5538 0.169,-0.1553 0.369,-0.2737 0.587,-0.3481 0.217,-0.0744 0.448,-0.1031 0.677,-0.084 12.614,0.5694 24.83,4.5665 35.322,11.5574 h 0.346 c 8.841,5.4579 19.09,8.2285 29.491,7.9719 10.4,-0.2566 20.499,-3.5291 29.058,-9.4163 l 1.313,-0.8944 c 8.342,-5.7564 14.997,-13.6146 19.286,-22.7708 l 16.451,-35.498 c 2.35,-4.04237 5.726,-7.39838 9.79,-9.73171 C 294.435,1.22856 299.045,0 303.737,0 c 4.692,0 9.302,1.22856 13.366,3.56189 4.065,2.33333 7.441,5.68934 9.791,9.73171 l 0.414,0.8255 15.623,33.7781 c 4.527,9.6615 11.718,17.8445 20.737,23.5963 l 3.387,2.2015 c 8.529,5.483 18.444,8.4506 28.597,8.5602 10.153,0.1096 20.13,-2.6437 28.776,-7.9413 l 0.968,-0.6189 c 10.867,-7.6119 23.831,-11.6972 37.12,-11.6972 13.288,0 26.253,4.0853 37.12,11.6972 12.259,8.2072 26.699,12.5907 41.474,12.5907 14.775,0 29.215,-4.3835 41.475,-12.5907 10.522,-6.9838 22.758,-10.9795 35.392,-11.5574 0.229,-0.019 0.46,0.0092 0.677,0.0836 0.218,0.0744 0.417,0.1932 0.586,0.3485 0.169,0.1553 0.304,0.3436 0.396,0.5534 0.092,0.2099 0.139,0.4366 0.138,0.6655 v 16.2353 c -0.018,0.4259 -0.2,0.8283 -0.51,1.1232 -0.309,0.2949 -0.721,0.4593 -1.149,0.459 -9.029,0.5266 -17.737,3.5265 -25.161,8.6681 -15.231,10.4938 -33.392,15.9568 -51.913,15.6168" fill="#b4dae9" id="path26"></path>
  </g>
</svg>
