<?xml version="1.0" encoding="UTF-8" standalone="no"?>
<!-- Created with Inkscape (http://www.inkscape.org/) -->
<svg xmlns:inkscape="http://www.inkscape.org/namespaces/inkscape" xmlns:sodipodi="http://sodipodi.sourceforge.net/DTD/sodipodi-0.dtd" xmlns="http://www.w3.org/2000/svg" xmlns:svg="http://www.w3.org/2000/svg" version="1.1" id="svg2" xml:space="preserve" width="315.38666" height="96" viewBox="0 0 315.38666 96" sodipodi:docname="Arm_logo.svg" inkscape:version="1.1.1 (3bf5ae0d25, 2021-09-20)">
  <defs id="defs6"></defs>
  <g id="g8" inkscape:groupmode="layer" inkscape:label="ink_ext_XXXXXX" transform="matrix(1.3333333,0,0,-1.3333333,0,96)">
    <g id="g10" transform="scale(0.1)">
      <path d="m 1430.25,702.199 h 158.56 V 639.102 C 1642.2,703.82 1705.3,720 1757.07,720 c 71.2,0 137.54,-33.977 176.37,-100.316 56.63,80.902 142.37,100.316 202.24,100.316 82.52,0 155.33,-38.832 194.16,-106.785 12.94,-22.652 35.59,-72.809 35.59,-171.508 V 21.0352 H 2206.88 V 396.402 c 0,76.047 -8.1,106.786 -14.57,121.348 -9.71,25.891 -33.98,59.867 -90.6,59.867 -38.84,0 -72.81,-21.035 -93.85,-50.156 -27.51,-38.832 -30.74,-97.078 -30.74,-155.328 V 21.0352 H 1818.56 V 396.402 c 0,76.047 -8.09,106.786 -14.56,121.348 -9.71,25.891 -33.98,59.867 -90.61,59.867 -38.83,0 -72.81,-21.035 -93.84,-50.156 -27.5,-38.832 -30.74,-97.078 -30.74,-155.328 V 21.0352 h -158.56 z m -548.957,0 h 158.557 v -61.484 c 17.8,21.039 43.69,43.687 66.34,56.633 30.74,17.797 61.48,22.652 97.08,22.652 38.83,0 80.9,-6.477 124.58,-32.363 l -64.71,-143.996 c -35.61,22.652 -64.73,24.265 -80.91,24.265 -33.98,0 -67.95,-4.847 -98.69,-37.211 -43.69,-46.922 -43.69,-111.64 -43.69,-156.941 V 21.0352 H 881.293 Z M 161.797,359.191 c 0,-118.109 74.426,-216.808 189.301,-216.808 100.316,0 192.543,72.808 192.543,215.187 0,148.856 -92.227,220.047 -192.543,220.047 -114.875,0 -189.301,-97.078 -189.301,-218.426 z M 533.93,702.199 H 692.492 V 21.0352 H 533.93 V 92.2227 C 464.355,11.332 378.605,0 330.066,0 119.73,0 0,174.742 0,362.43 0,584.09 152.09,720 331.684,720 381.84,720 469.215,707.055 533.93,622.922 v 79.277" style="fill:#3a91c2;fill-opacity:1;fill-rule:nonzero;stroke:none" id="path12"></path>
    </g>
  </g>
</svg>
