<?xml version="1.0" encoding="UTF-8" standalone="no"?>
<svg xmlns:inkscape="http://www.inkscape.org/namespaces/inkscape" xmlns:sodipodi="http://sodipodi.sourceforge.net/DTD/sodipodi-0.dtd" xmlns="http://www.w3.org/2000/svg" xmlns:svg="http://www.w3.org/2000/svg" width="2833" height="454" viewBox="0 0 2833 454" fill="none" version="1.1" id="svg28" sodipodi:docname="PlanetScale_logo.svg" inkscape:version="1.1.1 (3bf5ae0d25, 2021-09-20)">
  <defs id="defs32"></defs>
  <g id="g862">
    <path d="M 0,227 C 1.06726e-5,101.631 101.631,-1.06726e-5 227,0 319.178,8.05848e-6 398.524,54.9423 434.076,133.865 L 133.865,434.076 C 120.983,428.273 108.739,421.302 97.2684,413.3 L 283.568,227 H 227 L 66.4868,387.513 C 25.4079,346.434 -5.48004e-6,289.684 0,227 Z" fill="#000000" id="path2"></path>
    <path d="M 454,227.078 227.078,454 C 352.385,453.958 453.958,352.385 454,227.078 Z" fill="#000000" id="path4"></path>
    <path fill-rule="evenodd" clip-rule="evenodd" d="m 574.357,69 v 310.125 h 43.363 v -96.131 h 64.762 c 58.881,-0.598 106.83,-45.133 106.83,-103.572 C 789.312,114.597 742.65,69 682.723,69 Z m 173.451,107.54 c 0,36.334 -29.662,68.265 -65.84,68.456 -11.248,-0.006 -22.493,-0.003 -33.736,-0.001 -10.172,0.003 -20.343,0.005 -30.512,0.001 V 107.25 l 63.927,0.003 c 36.32,0 66.161,31.037 66.161,69.287 z" fill="#000000" id="path6"></path>
    <path d="M 2530.09,379.133 V 69.005 l 26.61,-0.0033 c 8.09,-0.0017 13.53,-0.0029 16.98,3e-4 v 310.131 z" fill="#000000" id="path8"></path>
    <path d="M 855.398,379.133 V 69.1789 c -7.692,-0.0034 -14.46,-0.0032 -26.71,-0.0028 l -16.876,3e-4 V 379.133 Z" fill="#000000" id="path10"></path>
    <path fill-rule="evenodd" clip-rule="evenodd" d="M 1123.93,379.133 V 146.956 h -43.59 v 32.689 h -0.84 c -18.02,-26.403 -46.52,-38.975 -80.463,-38.975 -68.312,0 -121.537,51.967 -121.537,126.146 0,67.055 55.32,118.184 123.21,118.184 33.11,0 62.45,-14.249 78.79,-41.909 h 0.84 v 36.042 z m -123.64,-33.947 c -43.582,0 -79.205,-38.137 -79.205,-81.723 0,-45.681 35.623,-82.98 79.205,-82.98 48.2,0 80.89,37.719 80.89,82.98 0,44.005 -35.62,81.723 -80.89,81.723 z" fill="#000000" id="path12"></path>
    <path d="M 1367.1,379.133 V 239.994 c 0,-64.121 -41.07,-99.324 -96.81,-99.324 -26.82,0 -50.71,8.801 -67.89,31.012 h -0.84 V 146.956 H 1158 v 232.177 h 46.5 V 252.148 c 0,-43.585 23.05,-71.665 61.18,-71.665 38.56,0 57.84,23.05 57.84,72.084 v 126.566 z" fill="#000000" id="path14"></path>
    <path fill-rule="evenodd" clip-rule="evenodd" d="m 1625.36,280.242 c 1.01,-7.246 1.01,-13.508 1.01,-20.131 0,-66.636 -51.97,-119.441 -120.28,-119.441 -61.61,0 -116.93,51.129 -116.93,124.47 0,62.025 52.81,119.86 118.19,119.86 49.87,0 93.46,-31.013 111.48,-78.789 h -43.59 c -13.41,24.726 -38.97,38.975 -66.22,38.975 -35.28,0 -65.63,-24.258 -75.98,-62.186 h 191.86 c 0.17,-0.887 0.32,-1.819 0.46,-2.758 z M 1433.11,245 c 5.02,-38.016 39.63,-64.517 74.24,-64.517 36.22,0 70.08,26.881 75.07,64.517 z" fill="#000000" id="path16"></path>
    <path d="m 1943.51,146.506 h 48.51 c -7.39,-38.077 -50.86,-77.501 -109.32,-77.501 -61.16,0 -108.04,34.974 -108.04,87.509 0,42.415 30.32,68.436 79.28,81.681 l 36.02,9.823 c 32.59,8.632 57.83,20.116 57.83,47.202 0,29.765 -28.42,49.41 -67.57,49.41 -31.21,0 -57.81,-12.255 -65.51,-37.884 h -48.45 c 7.95,46.975 49.75,78.215 114.26,78.215 71.59,0 112.81,-37.653 112.81,-89.295 0,-54.916 -49.05,-76.967 -87.74,-86.492 l -29.77,-7.738 c -23.81,-6.102 -55.47,-18.431 -55.33,-47.601 0,-25.895 23.67,-46.585 61.17,-46.585 32.08,0 55.65,15.267 61.85,39.256 z" fill="#000000" id="path18"></path>
    <path d="M 2241.21,306.746 C 2221.9,356.476 2178.52,385 2128.4,385 c -66.64,0 -119.02,-53.644 -119.02,-119.86 0,-69.988 50.7,-124.47 118.6,-124.47 51.19,0 98.06,31.12 113.47,78.849 h -49.14 c -13.11,-24.501 -33.43,-39.036 -63.07,-39.036 -45.69,0 -76.28,34.785 -76.28,82.142 0,46.1 31.43,82.561 75.44,82.561 28.12,0 51.01,-14.229 63.69,-38.44 z" fill="#000000" id="path20"></path>
    <path fill-rule="evenodd" clip-rule="evenodd" d="m 2495.97,146.956 v 232.177 h -43.58 v -36.042 h -0.84 c -16.35,27.66 -45.68,41.909 -78.79,41.909 -67.89,0 -123.21,-51.129 -123.21,-118.184 0,-74.179 53.22,-126.146 121.53,-126.146 33.95,0 62.45,12.572 80.47,38.975 h 0.84 v -32.689 z m -202.84,116.507 c 0,43.586 35.62,81.723 79.21,81.723 45.26,0 80.88,-37.718 80.88,-81.723 0,-45.261 -32.68,-82.98 -80.88,-82.98 -43.59,0 -79.21,37.299 -79.21,82.98 z" fill="#000000" id="path22"></path>
    <path fill-rule="evenodd" clip-rule="evenodd" d="m 2832.05,278.973 c 0.84,-6.714 0.84,-12.626 0.84,-18.86 v -0.002 c 0,-1.041 -0.01,-2.077 -0.03,-3.111 -0.21,-8.378 -1.24,-16.524 -3.02,-24.36 -3.27,-14.415 -9.08,-27.78 -16.99,-39.603 -21.23,-31.739 -57.54,-52.367 -100.24,-52.367 -61.6,0 -116.92,51.129 -116.92,124.47 0,7.753 0.82,15.441 2.39,22.958 11,52.622 58.59,96.902 115.79,96.902 49.87,0 93.46,-31.013 111.48,-78.789 h -43.59 c -1.67,3.091 -3.54,6.018 -5.57,8.774 -14.25,19.292 -36.81,30.201 -60.64,30.201 -35.29,0 -65.64,-24.259 -75.98,-62.186 h 191.85 c 0.07,-0.359 0.14,-0.725 0.2,-1.097 h 0.02 c 0.15,-0.995 0.29,-1.97 0.41,-2.93 z m -191.78,-37.92 c 6.81,-35.891 40.21,-60.57 73.6,-60.57 36.23,0 70.08,26.881 75.07,64.517 h -149.3 c 0.17,-1.33 0.38,-2.646 0.63,-3.947 z" fill="#000000" id="path24"></path>
    <path d="m 1703.97,147 h 48.69 v 38.028 h -48.69 v 129.807 c 0,22.788 11.04,29.134 23.38,30.291 0.87,0.023 1.64,0.053 2.31,0.089 7.5,0.402 13.37,-0.743 16.96,-1.923 5.11,11.592 12.03,22.204 20.6,31.531 -15.11,9.09 -33.05,10.81 -46.59,9.998 -6.53,-0.341 -12.88,-1.428 -18.86,-3.263 -26.67,-8.122 -35.06,-27.281 -38.08,-35.132 l 0.19,-0.007 c -2.29,-6.598 -3.54,-14.049 -3.5,-22.358 V 185.028 h -34.24 V 147 h 34.24 V 69.005 h 43.59 z" fill="#000000" id="path26"></path>
  </g>
</svg>
