<?xml version="1.0" encoding="UTF-8" standalone="no"?>
<svg
   width="500"
   height="127.71587"
   version="1.1"
   id="svg56"
   sodipodi:docname="ibm_cloud-ar21.svg"
   inkscape:version="1.1.1 (3bf5ae0d25, 2021-09-20)"
   xmlns:inkscape="http://www.inkscape.org/namespaces/inkscape"
   xmlns:sodipodi="http://sodipodi.sourceforge.net/DTD/sodipodi-0.dtd"
   xmlns="http://www.w3.org/2000/svg"
   xmlns:svg="http://www.w3.org/2000/svg">
  <sodipodi:namedview
     id="namedview58"
     pagecolor="#ffffff"
     bordercolor="#666666"
     borderopacity="1.0"
     inkscape:pageshadow="2"
     inkscape:pageopacity="0.0"
     inkscape:pagecheckerboard="0"
     showgrid="false"
     fit-margin-top="0"
     fit-margin-left="0"
     fit-margin-right="0"
     fit-margin-bottom="0"
     inkscape:zoom="8.8166667"
     inkscape:cx="53.478261"
     inkscape:cy="14.574669"
     inkscape:window-width="1920"
     inkscape:window-height="1001"
     inkscape:window-x="-7"
     inkscape:window-y="-7"
     inkscape:window-maximized="1"
     inkscape:current-layer="svg56" />
  <defs
     id="defs5">
    <filter
       id="A"
       filterUnits="userSpaceOnUse"
       x="79.300003"
       y="86.199997"
       width="188.10001"
       height="166.2">
      <feColorMatrix
         values="-1 0 0 0 1 0 -1 0 0 1 0 0 -1 0 1 0 0 0 1 0"
         color-interpolation-filters="sRGB"
         id="feColorMatrix2" />
    </filter>
  </defs>
  <mask
     maskUnits="userSpaceOnUse"
     x="79.3"
     y="86.2"
     width="188.1"
     height="166.2"
     id="B">
    <g
       filter="url(#A)"
       id="g44">
      <path
         d="m 104.4,152.5 c -0.6,0 -1.2,-0.2 -1.8,-0.5 l -16.8,-9.7 c -1.6,-0.8 -2.3,-2.7 -1.7,-4.4 0.7,-1.8 2.7,-2.8 4.6,-2.1 l 0.6,0.3 16.8,9.7 c 1.7,0.9 2.4,3.1 1.5,4.8 -0.6,1.2 -1.8,1.9 -3.2,1.9 z m 29.1,-29 c -1.3,0 -2.4,-0.7 -3.1,-1.8 l -9.7,-16.8 c -0.9,-1.5 -0.6,-3.5 0.7,-4.7 1.5,-1.3 3.7,-1.1 5,0.4 0.1,0.2 0.3,0.3 0.4,0.5 l 9.7,16.8 c 1,1.6 0.6,3.7 -0.9,4.9 -0.7,0.5 -1.4,0.7 -2.1,0.7 z m 36,-14.4 V 90 c 0,-2 1.4,-3.6 3.4,-3.8 2,-0.1 3.6,1.4 3.7,3.4 v 19.8 c 0,2 -1.6,3.6 -3.6,3.6 h -0.2 c -1.8,-0.3 -3.3,-2 -3.3,-3.9 z m 43.2,14.4 c -0.7,0 -1.4,-0.2 -2,-0.6 -1.5,-1.1 -1.9,-3.3 -0.9,-4.9 l 9.7,-16.8 c 1,-1.7 3.2,-2.3 4.9,-1.3 0.2,0.1 0.4,0.2 0.5,0.4 1.3,1.2 1.6,3.2 0.7,4.7 l -9.7,16.8 c -0.7,1 -1.9,1.7 -3.2,1.7 z m 29,29 c -1.3,0 -2.5,-0.7 -3.2,-1.9 -0.8,-1.8 -0.2,-3.9 1.5,-4.8 l 16.6,-9.6 c 1.5,-0.9 3.4,-0.6 4.6,0.7 1.3,1.5 1.1,3.7 -0.4,5 -0.2,0.1 -0.3,0.3 -0.5,0.4 l -17,9.8 c -0.3,0.2 -0.9,0.4 -1.6,0.4 z"
         id="path7" />
      <linearGradient
         id="C"
         gradientUnits="userSpaceOnUse"
         x1="179.53999"
         y1="197.623"
         x2="136.578"
         y2="136.26801">
        <stop
           offset=".2"
           stop-opacity="0"
           id="stop9" />
        <stop
           offset=".287"
           stop-opacity=".03"
           id="stop11" />
        <stop
           offset=".501"
           stop-opacity=".2"
           id="stop13" />
        <stop
           offset=".793"
           stop-opacity=".742"
           id="stop15" />
        <stop
           offset="1"
           id="stop17" />
      </linearGradient>
      <path
         d="m 128,233.7 c -24.9,-24.9 -24.9,-65.3 0,-90.2 24.9,-24.9 65.3,-24.9 90.2,0 a 69.1,69.1 0 0 1 5.1,5.7 c 1.1,1.4 2.1,2.8 3.1,4.3 l -5.9,3.9 c -0.9,-1.3 -1.8,-2.6 -2.8,-3.8 -1.4,-1.8 -2.9,-3.5 -4.5,-5.1 -22.1,-22.1 -58,-22.1 -80.2,0 -22.1,22.1 -22.1,58 0,80.2 z"
         fill="url(#C)"
         id="path20" />
      <path
         d="M 218.6,252.4 H 120.4 C 97.6,252.2 79.3,233.7 79.5,210.9 l 7.1,0.1 c -0.1,18.8 15,34.2 33.8,34.4 h 98.1 c 23,0 41.6,-18.6 41.7,-41.6 0,-10.2 -3.8,-20.1 -10.6,-27.8 l 5.3,-4.7 c 17.9,20.1 16.2,50.9 -3.8,68.8 -9,7.9 -20.5,12.3 -32.5,12.3 z"
         id="path22" />
      <linearGradient
         id="D"
         gradientUnits="userSpaceOnUse"
         x1="75.253998"
         y1="203.618"
         x2="118.48"
         y2="178.661">
        <stop
           offset=".08"
           id="stop24" />
        <stop
           offset=".753"
           stop-opacity=".07"
           id="stop26" />
        <stop
           offset=".875"
           stop-opacity="0"
           id="stop28" />
      </linearGradient>
      <path
         d="m 86.6,210.9 -7.1,-0.1 c 0.1,-20 14.6,-37 34.3,-40.3 l 1.2,7 c -16.3,2.8 -28.3,16.9 -28.4,33.4 z"
         fill="url(#D)"
         id="path31" />
      <linearGradient
         id="E"
         gradientUnits="userSpaceOnUse"
         x1="174.05901"
         y1="208.327"
         x2="239.81"
         y2="153.155">
        <stop
           offset=".138"
           stop-opacity="0"
           id="stop33" />
        <stop
           offset=".32"
           stop-opacity=".07"
           id="stop35" />
        <stop
           offset=".847"
           stop-opacity=".764"
           id="stop37" />
        <stop
           offset=".947"
           id="stop39" />
      </linearGradient>
      <path
         d="m 176.9,203.3 -7.1,-0.1 c 0.2,-26.9 22.2,-48.6 49.1,-48.4 13.7,0.1 26.8,6 36,16.2 l -5.3,4.7 c -15.3,-17.1 -41.7,-18.6 -58.8,-3.3 -8.7,8 -13.8,19.2 -13.9,30.9 z"
         fill="url(#E)"
         id="path42" />
    </g>
  </mask>
  <linearGradient
     id="F"
     gradientUnits="userSpaceOnUse"
     x1="234.367"
     y1="65.612999"
     x2="120.164"
     y2="259.491">
    <stop
       offset="0"
       stop-color="#50ffd2"
       id="stop47" />
    <stop
       offset="1"
       stop-color="#0064ff"
       id="stop49" />
  </linearGradient>
  <g
     id="g851"
     transform="matrix(4.6687416,0,0,4.6687416,-2.0212739e-6,9.3374832e-7)">
    <path
       d="m 39.895245,20.630063 v -1.008 h 1.414 v -8.064 h -1.414 v -1.008 h 4.046 v 1.008 h -1.413 v 8.064 h 1.414 v 1.008 z m 6.258,-10.08 h 4.144 c 1.666,0 2.688,1.022 2.688,2.604 0,1.498 -0.966,2.03 -1.638,2.142 v 0.084 c 0.728,0.042 1.974,0.658 1.974,2.338 0,1.666 -1.106,2.912 -2.604,2.912 h -4.579 z m 1.204,4.354 h 2.786 c 0.952,0 1.526,-0.504 1.526,-1.4 v -0.5 c 0,-0.896 -0.574,-1.4 -1.526,-1.4 h -2.785 z m 0,4.648 h 2.996 c 1.036,0 1.68,-0.546 1.68,-1.554 v -0.5 c 0,-1.008 -0.63,-1.554 -1.68,-1.554 h -2.995 z m 16.058,-7.42 h -0.07 l -0.854,1.694 -2.408,4.396 -2.394,-4.396 -0.854,-1.68 h -0.07 v 8.484 h -1.2 v -10.08 h 1.583 l 2.884,5.432 h 0.056 l 2.898,-5.432 h 1.582 v 10.08 h -1.162 z m 6.076,3.528 c 0,-3.402 1.75,-5.292 4.466,-5.292 1.848,0 3.038,0.756 3.766,2.366 l -1.9,0.98 c -0.266,-0.84 -0.798,-1.4 -1.876,-1.4 -1.288,0 -2.142,0.868 -2.142,2.45 v 1.624 c 0,1.582 0.854,2.45 2.142,2.45 1.078,0 1.708,-0.672 2.002,-1.498 l 1.792,1.036 c -0.756,1.526 -1.946,2.408 -3.794,2.408 -2.716,0.014 -4.466,-1.722 -4.466,-5.124 z m 11.802,4.97 c -1.456,0 -2.128,-0.742 -2.128,-2.086 V 9.9440632 h 2.142 v 9.0299998 h 0.952 v 1.666 z m 1.778,-3.808 c 0,-2.436 1.33,-3.962 3.556,-3.962 2.226,0 3.556,1.512 3.556,3.962 0,2.436 -1.33,3.976 -3.556,3.976 -2.226,0 -3.556,-1.526 -3.556,-3.976 z m 4.886,0.784 v -1.54 c 0,-0.952 -0.5,-1.498 -1.33,-1.498 -0.83,0 -1.33,0.546 -1.33,1.498 v 1.54 c 0,0.952 0.5,1.498 1.33,1.498 0.83,0 1.33,-0.546 1.33,-1.498 z m 8.218,1.75 h -0.07 c -0.266,0.77 -0.882,1.442 -2.128,1.442 -1.54,0 -2.366,-1.078 -2.366,-2.996 v -4.76 h 2.142 v 4.578 c 0,0.924 0.308,1.442 1.078,1.442 0.658,0 1.344,-0.378 1.344,-1.092 v -4.928 h 2.142 v 7.588 h -2.142 z m 8.777995,0 h -0.07 c -0.2,0.826 -1.05,1.442 -2.03,1.442 -1.918,0 -2.911995,-1.4 -2.911995,-3.976 0,-2.576 0.993995,-3.962 2.911995,-3.962 0.98,0 1.82,0.602 2.03,1.442 h 0.07 V 9.9200632 h 2.142 V 20.602063 h -2.142 z m 0,-1.4 v -2.24 c 0,-0.7 -0.588,-1.106 -1.4,-1.106 -0.812,0 -1.4,0.616 -1.4,1.568 v 1.306 c 0,0.952 0.588,1.568 1.4,1.568 0.812,0 1.4,-0.42 1.4,-1.106 z"
       id="path52" />
    <path
       transform="matrix(0.174633,0,0,0.164594,-13.848397,-14.188003)"
       mask="url(#B)"
       d="M 79.3,86.2 H 267.4 V 252.4 H 79.3 Z"
       fill="url(#F)"
       id="path54"
       style="fill:url(#F)" />
  </g>
</svg>
